<?xml version="1.0" encoding="UTF-8"?>
<svg id="Capa_2" data-name="Capa 2" xmlns="http://www.w3.org/2000/svg" viewBox="0 0 96 96">
  <defs>
    <style>
      .cls-1 {
        fill: #00a5ae;
      }

      .cls-1, .cls-2 {
        stroke-width: 0px;
      }

      .cls-2 {
        fill: #fff;
      }
    </style>
  </defs>
  <g id="Capa_1-2" data-name="Capa 1">
    <circle class="cls-1" cx="48" cy="48" r="48"/>
    <g>
      <rect class="cls-2" x="23.92" y="27.81" width="7.28" height="53.63"/>
      <path class="cls-2" d="M41.13,51.97v.57c-.18-.19-.35-.38-.52-.57h.52Z"/>
      <rect class="cls-2" x="23.92" y="17.21" width="7.28" height="7.28"/>
      <path class="cls-2" d="M81.85,38.23c0,5.25-1.93,10.05-5.11,13.74-3.85,4.46-9.55,7.28-15.91,7.28h-15.39v22.18h-7.28v-29.46h6.77c.17.19.34.38.52.57v-.57h13.74c3.79,0,7.23-1.54,9.71-4.03,2.49-2.48,4.03-5.92,4.03-9.71,0-7.59-6.15-13.74-13.74-13.74h-21.02v-7.28h22.68c6.36,0,12.06,2.82,15.91,7.28,3.18,3.68,5.11,8.48,5.11,13.74Z"/>
      <path class="cls-2" d="M40.61,51.97h.52v.57c-.18-.19-.35-.38-.52-.57Z"/>
      <path class="cls-2" d="M40.61,51.97h.52v.57c-.18-.19-.35-.38-.52-.57Z"/>
    </g>
  </g>
</svg>